<svg xmlns="http://www.w3.org/2000/svg" width="140" height="130"><g transform="translate(-220 -200)"><path d="M240 300h94v-80h-94z" stroke="#000" stroke-width="2" fill="url(#a)"/><path d="M312 300h22v-80h-22z" stroke="#fff" stroke-width="2" fill="#fff"/><path d="M340 260c0 8.28-7.6 15-17 15s-17-6.72-17-15c0-8.28 7.6-15 17-15s17 6.72 17 15z" stroke="#02b3e4" stroke-width="2" fill="url(#b)"/><path d="M294 295c0 8.28-7.6 15-17 15s-17-6.72-17-15c0-8.28 7.6-15 17-15s17 6.72 17 15z" stroke="#fff" stroke-width="2" fill="#fff"/><defs><linearGradient gradientUnits="userSpaceOnUse" id="a" x1="334" y1="220" x2="334" y2="300"><stop offset="0%" stop-color="#02b3e4"/><stop offset="100%" stop-color="#02b3e4"/></linearGradient><linearGradient gradientUnits="userSpaceOnUse" id="b" x1="340" y1="245" x2="340" y2="275"><stop offset="0%" stop-color="#02b3e4"/><stop offset="100%" stop-color="#02b3e4"/></linearGradient></defs></g></svg>